<?xml version="1.0" encoding="UTF-8"?>
<!DOCTYPE svg PUBLIC "-//W3C//DTD SVG 1.1//EN" "http://www.w3.org/Graphics/SVG/1.1/DTD/svg11.dtd">
<!-- Creator: CorelDRAW X7 -->
<svg xmlns="http://www.w3.org/2000/svg" xml:space="preserve" width="118.886mm" height="104.069mm" version="1.1" style="shape-rendering:geometricPrecision; text-rendering:geometricPrecision; image-rendering:optimizeQuality; fill-rule:evenodd; clip-rule:evenodd"
viewBox="0 0 11889 10407"
 xmlns:xlink="http://www.w3.org/1999/xlink">
 <defs>
  <style type="text/css">
   <![CDATA[
    .fil0 {fill:url(#id0)}
   ]]>
  </style>
  <radialGradient id="id0" gradientUnits="userSpaceOnUse" gradientTransform="matrix(0.952805 -0 -0 -0.952805 286 9920)" cx="6064.2" cy="5080.08" r="5073.11" fx="6064.2" fy="5080.08">
   <stop offset="0" style="stop-opacity:1; stop-color:#4B0D1B"/>
   <stop offset="0.988235" style="stop-opacity:1; stop-color:#77151E"/>
   <stop offset="1" style="stop-opacity:1; stop-color:#77151E"/>
  </radialGradient>
 </defs>
 <g id="Слой_x0020_1">
  <metadata id="CorelCorpID_0Corel-Layer"/>
  <path class="fil0" d="M5227 498c-538,0 -1062,172 -1496,489l0 0c-434,318 -756,765 -920,1278l0 0 0 1c-46,-178 -147,-336 -289,-452l0 0c-142,-116 -317,-184 -500,-194l0 0c-116,-6 -231,12 -340,53l0 0c-109,40 -208,103 -291,183l0 0c-84,80 -151,176 -197,282l0 0c-45,107 -68,221 -68,337l0 0 171 0c0,-93 18,-185 55,-271l0 0c36,-85 90,-163 158,-227l0 0c67,-64 146,-114 233,-147l0 0c87,-32 180,-46 273,-42l0 0c172,9 334,82 455,204l0 0c121,123 192,286 198,459l0 0 0 25c-1,86 -22,170 -60,246l0 0c-38,77 -94,144 -162,196l0 0 -1456 1133 1894 0 0 -44c115,277 279,532 483,753l0 0c4,122 16,243 38,363l0 0c0,0 0,-57 62,-261l0 0c77,-230 289,-816 563,-1041l0 0c343,-283 796,-368 1065,-407l0 0c268,-39 356,-92 445,-429l0 0c89,-338 -238,-792 -387,-1025l0 0c-150,-232 -137,-497 -137,-497l0 0c0,0 -7,5 -49,4l0 0c-41,-1 -128,-38 -128,-38l0 0c34,1 69,-5 101,-20l0 0c39,-21 76,-48 108,-80l0 0c-32,-2 -62,-14 -88,-33l0 0c-21,-22 -39,-47 -52,-75l0 0c0,0 130,40 228,-26l0 0c98,-67 281,-115 483,-24l0 0c202,92 181,407 181,407l0 0c0,0 383,1368 448,1656l0 0c66,288 -47,437 -47,437l0 0c0,0 3,-25 -22,-119l0 0c-14,-54 -92,-247 -189,-465l0 0c-2,-3 -3,-6 -6,-11l0 0c-40,-81 -90,-183 -90,-183l0 0c13,74 22,148 28,223l0 0c7,101 28,201 61,297l0 0c30,90 161,324 135,566l0 0c-51,487 -378,711 -1465,1190l0 0 135 364c145,25 292,38 439,38l0 0c493,0 975,-143 1388,-414l0 0c412,-270 737,-654 935,-1107l0 0 1679 0c88,181 228,332 403,432l0 0c174,100 374,146 574,132l0 0c240,-19 465,-122 635,-292l0 0c170,-170 274,-395 293,-635l0 0c18,-251 -58,-501 -214,-698l0 0c-156,-198 -381,-330 -630,-370l0 0 543 -740 -1826 0c-151,-156 -355,-249 -572,-260l0 0c-116,-5 -232,12 -341,53l0 0c-108,41 -207,103 -291,184l0 0c-87,82 -155,183 -201,294l0 0c-180,-485 -505,-903 -929,-1198l0 0c-425,-296 -930,-454 -1447,-454l0 0c0,0 0,0 0,0zm2472 1978l9 0c0,-93 19,-185 55,-271l0 0c37,-85 90,-163 158,-227l0 0c67,-64 146,-114 233,-147l0 0c87,-32 180,-46 273,-42l0 0c172,9 335,82 456,204l0 0c120,123 191,286 198,458l0 0 0 26c-2,86 -22,170 -61,246l0 0c-38,77 -93,144 -161,196l0 0 -1244 967c97,-273 146,-561 146,-850l0 0 1 1c0,-189 -21,-377 -63,-561zm1264 577c88,-68 159,-154 209,-254l0 0c49,-99 76,-209 78,-320l0 0 0 -32c-6,-139 -45,-275 -115,-396l0 0 1364 0 -534 727 167 0c222,1 434,89 590,246l0 0c157,156 245,369 245,590l0 0c0,222 -88,434 -245,591l0 0c-156,156 -368,244 -590,245l0 0c-221,-1 -433,-89 -590,-245l0 0c-156,-157 -244,-369 -245,-591l0 0 -168 0c0,91 13,182 37,270l0 0 -1269 0 1066 -831zm-6413 0c55,-43 105,-93 146,-150l0 0c-2,44 -4,89 -4,134l0 0c0,288 49,575 145,846l0 0 -1353 0 1066 -830zm3060 -1620c-7,0 -14,1 -21,4l0 0c-6,2 -12,6 -17,11l0 0c-5,5 -9,11 -12,18l0 0c-2,6 -4,13 -4,20l0 0c0,14 6,28 16,38l0 0c10,10 23,15 38,15l0 0c7,0 14,-1 20,-4l0 0c6,-2 12,-6 17,-11l0 0c5,-5 9,-11 12,-18l0 0c2,-6 4,-13 4,-20l0 0c0,-7 -2,-14 -4,-20l0 0c-3,-7 -7,-13 -12,-18l0 0c-5,-5 -11,-9 -17,-11l0 0c-6,-3 -13,-4 -20,-4l0 0c0,0 0,0 0,0zm130 180c-14,0 -86,4 -70,69l0 0 0 0c18,74 273,938 273,938l0 0 -357 -974c0,0 -209,162 -209,365l0 0c0,316 478,673 588,881l0 0c110,208 221,526 221,526l0 0c0,0 8,-199 -41,-357l0 0c-50,-158 -402,-1448 -402,-1448l0 0 -3 0zm-1292 2967l0 0c-465,461 -1172,738 -1172,738l0 0c0,0 686,-141 1293,-612l0 0c607,-471 476,-996 476,-996l0 0c0,0 -131,409 -597,870zm-81 703l57 159c67,22 136,42 205,59l0 0 -95 -279c-57,22 -113,43 -167,61zm-1 0c0,0 0,0 1,0l0 0 -1 0 0 0zm-195 59l-1 0c31,14 62,27 93,40l0 0 -19 -61c-25,7 -50,14 -73,21zm-2258 1016l0 731c0,214 114,356 344,356l0 0c230,0 346,-142 346,-356l0 0 0 -731c0,-216 -114,-356 -346,-356l0 0c-232,0 -344,140 -344,356zm166 739l0 -748c0,-127 58,-204 178,-204l0 0c120,0 178,77 178,204l0 0 0 748c0,130 -55,204 -178,204l0 0c-122,0 -178,-74 -178,-204zm6547 -732l0 731c0,214 114,356 343,356l0 0c230,0 346,-142 346,-356l0 0 0 -731c0,-214 -114,-355 -346,-355l0 0c-229,0 -343,139 -343,355zm165 739l0 -747c0,-127 58,-204 178,-204l0 0c121,0 179,77 179,204l0 0 0 747c0,130 -56,204 -179,204l0 0c-122,0 -178,-74 -178,-204zm-7627 -1088l0 1414 166 0 0 -1270 433 0 0 -144 -599 0zm1784 2l-58 1069c-4,87 -15,151 -67,206l0 0 -96 0 0 333 161 0 0 -195 614 0 0 194 163 0 0 -334 -113 0 0 -1273 -604 0zm155 142l279 0 0 1131 -397 0c47,-46 62,-107 69,-208l0 0 -1 0 50 -923zm7380 -137l-288 1414 155 0 58 -284 380 0 58 284 168 0 -288 -1414 -243 0zm112 178l169 816 -335 0 166 -816zm-1119 -178l0 1414 166 0 0 -1270 434 0 0 -144 -600 0zm-1599 0l0 1414 165 0 0 -1270 434 0 0 -144 -599 0zm-664 0l-288 1414 155 0 58 -284 380 0 58 284 169 0 -289 -1414 -243 0zm112 178l169 816 -334 0 165 -816zm-1220 -178l-58 1069c-4,87 -15,152 -67,206l0 0 -96 0 0 334 161 0 0 -195 614 0 0 195 163 0 0 -334 -113 0 0 -1275 -604 0zm435 144l-1 1131 -397 0c47,-46 62,-107 70,-208l0 0 49 -923 279 0zm-1395 -144l0 1414 619 0 0 -143 -451 0 0 -503 367 0 0 -142 -367 0 0 -482 451 0 0 -144 -619 0zm-876 0l0 1414 168 0 0 -1270 369 0 0 1270 168 0 0 -1414 -705 0zm-79 2535l0 743c0,217 109,361 342,361l0 0c233,0 345,-144 345,-361l0 0 0 -179 -161 0 0 187c0,129 -55,207 -179,207l0 0c-125,0 -179,-78 -179,-207l0 0 0 -760c0,-129 56,-207 179,-207l0 0c122,0 179,78 179,207l0 0 0 138 161 0 0 -129c0,-218 -109,-362 -345,-362l0 0c-233,0 -342,144 -342,362zm6352 -347l-293 1436 157 0 60 -289 387 0 59 289 170 0 -294 -1436 -246 0zm113 182l173 828 -341 0 168 -828zm-678 -182l-406 693 0 -693 -170 0 0 1436 170 0 0 -482 90 -142 327 624 175 0 -400 -782 387 -654 -173 0zm-938 0l-245 675 -135 396 0 -1071 -150 0 0 1436 177 0 224 -663 166 -480 0 1143 153 0 0 -1436 -190 0zm-875 0l0 646 -375 0 0 -646 -170 0 0 1436 170 0 0 -646 375 0 0 646 170 0 0 -1436 -170 0zm-1400 0l0 1436 352 0c237,0 349,-121 349,-336l0 0 0 -121c-2,-158 -58,-269 -206,-308l0 0c133,-39 179,-133 179,-285l0 0 0 -68c0,-212 -94,-318 -332,-318l0 0 -342 0zm171 145l168 0c122,0 168,62 168,189l0 0 0 84c0,150 -70,191 -205,191l0 0 -131 0 0 -464zm0 610l149 0c146,0 214,54 214,213l0 0 0 128c0,132 -57,195 -182,195l0 0 -181 0 0 -536zm-844 -755l-292 1436 156 0 59 -289 387 0 59 289 170 0 -292 -1436 -247 0zm113 182l172 828 -340 0 168 -828zm-1220 -182l0 145 281 0 0 1291 170 0 0 -1291 282 0 0 -145 -733 0zm-1453 0l-292 1436 157 0 58 -289 388 0 59 289 170 0 -292 -1436 -248 0zm113 182l173 828 -341 0 168 -828zm-706 -182l0 646 -375 0 0 -646 -171 0 0 1436 171 0 0 -646 375 0 0 646 170 0 0 -1436 -170 0zm-1246 0l-244 675 -135 396 0 -1071 -151 0 0 1436 177 0 224 -663 166 -480 0 1143 153 0 0 -1436 -190 0z"/>
 </g>
</svg>
