<?xml version="1.0" encoding="UTF-8"?>
<!DOCTYPE svg PUBLIC "-//W3C//DTD SVG 1.1//EN" "http://www.w3.org/Graphics/SVG/1.1/DTD/svg11.dtd">
<!-- Creator: CorelDRAW X7 -->
<svg xmlns="http://www.w3.org/2000/svg" xml:space="preserve" width="118.886mm" height="104.069mm" version="1.1" style="shape-rendering:geometricPrecision; text-rendering:geometricPrecision; image-rendering:optimizeQuality; fill-rule:evenodd; clip-rule:evenodd"
viewBox="0 0 11889 10407"
 xmlns:xlink="http://www.w3.org/1999/xlink">
 <defs>
  <style type="text/css">
   <![CDATA[
    .fil0 {fill:url(#id0)}
   ]]>
  </style>
  <radialGradient id="id0" gradientUnits="userSpaceOnUse" gradientTransform="matrix(1.05498 -0 -0 -1.05498 -245 10424)" cx="4461.85" cy="5072.79" r="4574.51" fx="4461.85" fy="5072.79">
   <stop offset="0" style="stop-opacity:1; stop-color:#4B0D1B"/>
   <stop offset="0.988235" style="stop-opacity:1; stop-color:#77151E"/>
   <stop offset="1" style="stop-opacity:1; stop-color:#77151E"/>
  </radialGradient>
 </defs>
 <g id="Слой_x0020_1">
  <metadata id="CorelCorpID_0Corel-Layer"/>
  <path class="fil0" d="M5227 498c-1104,0 -2081,716 -2416,1767l0 1c-113,623 -199,980 26,1617l48 124c115,277 279,532 483,753 4,122 16,243 38,363l0 0c0,0 0,-57 62,-261l0 0c77,-230 289,-816 563,-1041 299,-247 687,-353 1065,-407l0 0c268,-39 356,-92 445,-429l0 0c89,-338 -238,-792 -387,-1025l0 0c-150,-232 -137,-497 -137,-497 -6,5 -42,4 -49,4 -34,-1 -95,-24 -128,-38 34,1 69,-5 101,-20 39,-21 76,-48 108,-80 -32,-2 -62,-14 -88,-33 -21,-22 -39,-47 -52,-75l0 0c0,0 130,40 228,-26l0 0c98,-67 281,-115 483,-24l0 0c202,92 181,407 181,407l0 0c0,0 383,1368 448,1656l0 0c66,288 -47,437 -47,437l0 0c0,0 3,-25 -22,-119l0 0c-14,-54 -92,-247 -189,-465 -2,-4 -4,-7 -6,-11 -30,-61 -60,-122 -90,-183 13,74 22,148 28,223 7,101 28,201 61,297l0 0c30,90 161,324 135,566l0 0c-51,487 -378,711 -1465,1190l135 364c145,25 292,38 439,38 1007,0 1919,-597 2323,-1521l64 -164c97,-273 146,-561 146,-850l1 1c0,-189 -21,-377 -63,-561l-96 -326c-369,-993 -1317,-1652 -2376,-1652zm383 935c-47,0 -72,57 -38,91 34,34 91,9 91,-38 0,-29 -24,-53 -53,-53zm130 180c-14,0 -86,4 -70,69l0 0c18,74 273,938 273,938l-357 -974c0,0 -209,162 -209,365l0 0c0,316 478,673 588,881l0 0c110,208 221,526 221,526l0 0c0,0 8,-199 -41,-357l0 0c-50,-158 -402,-1448 -402,-1448l-3 0zm-1292 2967l0 0c-465,461 -1172,738 -1172,738l0 0c0,0 686,-141 1293,-612l0 0c607,-471 476,-996 476,-996l0 0c0,0 -131,409 -597,870zm-81 703l57 159c67,22 136,42 205,59l-95 -279c-57,22 -113,43 -167,61zm-196 59l-1 0c31,14 62,27 93,40l-19 -61 -73 21zm-3009 4280l0 25 50 0c-17,-8 -33,-17 -50,-25z"/>
 </g>
</svg>
